<svg width="11" height="15" viewBox="0 0 11 15" fill="none" xmlns="http://www.w3.org/2000/svg">
<path d="M5.5 0L2.40625 3.06818L5.5 6.13636V4.09091C6.41168 4.09091 7.28602 4.45008 7.93068 5.08941C8.57534 5.72874 8.9375 6.59585 8.9375 7.5C8.9375 8.04545 8.81375 8.56364 8.58 9.02727L10.0787 10.5136C10.6562 9.65454 11 8.61818 11 7.5C11 4.48636 8.53875 2.04545 5.5 2.04545V0ZM0.92125 4.48636C0.34375 5.34545 0 6.38182 0 7.5C0 10.5136 2.46125 12.9545 5.5 12.9545V15L8.59375 11.9318L5.5 8.86364V10.9091C4.58832 10.9091 3.71398 10.5499 3.06932 9.91059C2.42466 9.27126 2.0625 8.40415 2.0625 7.5C2.0625 6.95455 2.18625 6.43636 2.42 5.97273L0.92125 4.48636Z" fill="#5D5D62"/>
</svg>
