<svg width="16" height="16" viewBox="0 0 16 16" fill="none" xmlns="http://www.w3.org/2000/svg">
<path d="M6.56395 6.45101L5.69239 9.47671C5.62769 9.70126 5.68859 9.94484 5.85224 10.1123C5.97403 10.2379 6.14149 10.3026 6.31276 10.3026C6.36985 10.3026 6.42693 10.295 6.48402 10.2798L9.54017 9.43865C9.64674 9.40821 9.74569 9.35112 9.82561 9.27119L15.3632 3.7336C15.7743 3.32256 15.9988 2.77831 15.9988 2.19982C15.9988 1.62132 15.7743 1.07707 15.3632 0.666034L15.3328 0.635587C14.9217 0.224549 14.3775 0 13.799 0C13.2205 0 12.6762 0.224549 12.2652 0.635587L6.7276 6.17318C6.64768 6.2493 6.59059 6.34445 6.56395 6.45101ZM7.759 6.96862L13.1824 1.549C13.3461 1.38535 13.5668 1.29401 13.8028 1.29401C14.035 1.29401 14.2557 1.38535 14.4232 1.549L14.4536 1.57945C14.6173 1.74311 14.7086 1.96385 14.7086 2.19982C14.7086 2.43578 14.6173 2.65272 14.4536 2.82018L9.03398 8.23599L7.25662 8.72695L7.759 6.96862Z" fill="#222222"/>
<path d="M2.15034 16H11.8821C13.0771 16 14.0438 15.0447 14.0438 13.8496V9.17218C14.0438 8.81443 13.7546 8.52518 13.3968 8.52518C13.0391 8.52518 12.7498 8.81443 12.7498 9.17218V13.8496C12.7498 14.333 12.3654 14.706 11.8821 14.706H2.15034C1.66699 14.706 1.29401 14.3292 1.29401 13.8496V4.11793C1.29401 3.63458 1.6708 3.25019 2.15034 3.25019H6.824C7.18176 3.25019 7.471 2.96094 7.471 2.60318C7.471 2.24543 7.18176 1.95618 6.824 1.95618H2.15034C0.955284 1.95618 0 2.91907 0 4.11793V13.8496C0 15.0447 0.955284 16 2.15034 16Z" fill="#222222"/>
</svg>
