<svg width="122" height="14" viewBox="0 0 122 14" fill="none" xmlns="http://www.w3.org/2000/svg">
<path d="M3.82495 0.497415C4.86552 0.497415 5.746 0.674655 6.4664 1.02913C7.18679 1.37218 7.73566 1.86388 8.11301 2.50423C8.49036 3.13314 8.67903 3.88212 8.67903 4.75117C8.67903 5.26574 8.59899 5.78602 8.4389 6.31203C8.29025 6.82659 8.0444 7.29542 7.70136 7.71851C7.36975 8.1416 6.91807 8.48464 6.34633 8.74764C5.78602 8.99921 5.09422 9.12499 4.27091 9.12499H2.48708V13.1215H0V0.497415H3.82495ZM4.25376 6.70653C4.6311 6.70653 4.94556 6.64364 5.19713 6.51785C5.4487 6.38063 5.64309 6.21483 5.78031 6.02044C5.92896 5.81461 6.03187 5.60307 6.08905 5.3858C6.15766 5.16854 6.19196 4.97987 6.19196 4.81978C6.19196 4.694 6.16909 4.52819 6.12335 4.32237C6.08905 4.1051 6.009 3.88784 5.88322 3.67058C5.75744 3.45332 5.56304 3.27036 5.30004 3.12171C5.04848 2.97306 4.70543 2.89873 4.27091 2.89873H2.48708V6.70653H4.25376Z" fill="#222222"/>
<path d="M14.7294 0.497415C15.5184 0.497415 16.2216 0.600328 16.8391 0.806155C17.4566 1.00055 17.9711 1.28642 18.3828 1.66377C18.8059 2.02968 19.126 2.47564 19.3433 3.00164C19.5606 3.51621 19.6692 4.09939 19.6692 4.75117C19.6692 5.26574 19.5892 5.78031 19.4291 6.29487C19.2804 6.80944 19.0288 7.27827 18.6744 7.70136C18.3313 8.12444 17.8739 8.46749 17.3022 8.73049C16.7304 8.98206 16.0215 9.10784 15.1753 9.10784H13.3915V13.1215H10.9044V0.497415H14.7294ZM15.1582 6.70653C15.5355 6.70653 15.85 6.64364 16.1015 6.51785C16.3531 6.39207 16.5475 6.23198 16.6847 6.03759C16.8334 5.8432 16.9363 5.64309 16.9934 5.43726C17.0621 5.22 17.0964 5.01989 17.0964 4.83693C17.0964 4.69971 17.0735 4.52819 17.0278 4.32237C16.9935 4.1051 16.9134 3.88784 16.7876 3.67058C16.6618 3.45332 16.4674 3.27036 16.2044 3.12171C15.9529 2.97306 15.6098 2.89873 15.1753 2.89873H13.3915V6.70653H15.1582ZM17.4909 8.25023L20.6126 13.1215H17.7138L14.5235 8.31884L17.4909 8.25023Z" fill="#222222"/>
<path d="M21.4557 6.82659C21.4557 5.95755 21.6215 5.13424 21.9531 4.35667C22.2847 3.5791 22.7421 2.89301 23.3253 2.2984C23.9199 1.69235 24.606 1.21781 25.3836 0.874764C26.1611 0.53172 26.9959 0.360198 27.8878 0.360198C28.7683 0.360198 29.5973 0.53172 30.3749 0.874764C31.1524 1.21781 31.8385 1.69235 32.4331 2.2984C33.0392 2.89301 33.508 3.5791 33.8396 4.35667C34.1827 5.13424 34.3542 5.95755 34.3542 6.82659C34.3542 7.71851 34.1827 8.55325 33.8396 9.33082C33.508 10.1084 33.0392 10.7945 32.4331 11.3891C31.8385 11.9723 31.1524 12.4297 30.3749 12.7613C29.5973 13.0929 28.7683 13.2587 27.8878 13.2587C26.9959 13.2587 26.1611 13.0929 25.3836 12.7613C24.606 12.4297 23.9199 11.9723 23.3253 11.3891C22.7421 10.7945 22.2847 10.1084 21.9531 9.33082C21.6215 8.55325 21.4557 7.71851 21.4557 6.82659ZM24.0285 6.82659C24.0285 7.3869 24.1257 7.9129 24.3201 8.4046C24.526 8.88486 24.8061 9.31367 25.1606 9.69102C25.5265 10.0569 25.9439 10.3428 26.4127 10.5486C26.893 10.7545 27.4133 10.8574 27.9736 10.8574C28.511 10.8574 29.0084 10.7545 29.4658 10.5486C29.9346 10.3428 30.3406 10.0569 30.6836 9.69102C31.0267 9.31367 31.2954 8.88486 31.4898 8.4046C31.6842 7.9129 31.7814 7.3869 31.7814 6.82659C31.7814 6.25485 31.6784 5.72313 31.4726 5.23143C31.2782 4.73974 31.0038 4.31093 30.6493 3.94502C30.3063 3.56767 29.9003 3.27608 29.4315 3.07025C28.9627 2.86442 28.4538 2.76151 27.905 2.76151C27.3561 2.76151 26.8472 2.86442 26.3784 3.07025C25.9096 3.27608 25.4979 3.56767 25.1434 3.94502C24.789 4.31093 24.5145 4.73974 24.3201 5.23143C24.1257 5.72313 24.0285 6.25485 24.0285 6.82659Z" fill="#222222"/>
<path d="M40.6587 0.497415C41.6993 0.497415 42.5798 0.674655 43.3002 1.02913C44.0206 1.37218 44.5694 1.86388 44.9468 2.50423C45.3241 3.13314 45.5128 3.88212 45.5128 4.75117C45.5128 5.26574 45.4328 5.78602 45.2727 6.31203C45.124 6.82659 44.8782 7.29542 44.5351 7.71851C44.2035 8.1416 43.7518 8.48464 43.1801 8.74764C42.6198 8.99921 41.928 9.12499 41.1047 9.12499H39.3208V13.1215H36.8338V0.497415H40.6587ZM41.0875 6.70653C41.4649 6.70653 41.7793 6.64364 42.0309 6.51785C42.2825 6.38063 42.4769 6.21483 42.6141 6.02044C42.7627 5.81461 42.8656 5.60307 42.9228 5.3858C42.9914 5.16854 43.0257 4.97987 43.0257 4.81978C43.0257 4.694 43.0029 4.52819 42.9571 4.32237C42.9228 4.1051 42.8428 3.88784 42.717 3.67058C42.5912 3.45332 42.3968 3.27036 42.1338 3.12171C41.8822 2.97306 41.5392 2.89873 41.1047 2.89873H39.3208V6.70653H41.0875Z" fill="#222222"/>
<path d="M60.0568 3.55051C59.5766 3.28751 59.0849 3.07025 58.5817 2.89873C58.09 2.72721 57.6269 2.64145 57.1924 2.64145C56.655 2.64145 56.2319 2.75008 55.9231 2.96734C55.6144 3.1846 55.46 3.51049 55.46 3.94502C55.46 4.24232 55.5744 4.51104 55.8031 4.75117C56.0432 4.97987 56.3462 5.18569 56.7121 5.36865C57.0895 5.55161 57.4783 5.71741 57.8785 5.86607C58.2444 6.00328 58.6046 6.16909 58.9591 6.36348C59.325 6.54644 59.6509 6.78085 59.9368 7.06672C60.2226 7.34116 60.4513 7.68992 60.6229 8.11301C60.7944 8.52466 60.8801 9.03351 60.8801 9.63956C60.8801 10.2799 60.7143 10.8745 60.3827 11.4234C60.0511 11.9723 59.5651 12.4182 58.9248 12.7613C58.2844 13.0929 57.4954 13.2587 56.5578 13.2587C56.0775 13.2587 55.5858 13.2129 55.0827 13.1215C54.591 13.0186 54.105 12.8699 53.6247 12.6755C53.1445 12.4697 52.6814 12.2124 52.2354 11.9037L53.3331 9.96545C53.6305 10.1827 53.9506 10.3771 54.2937 10.5486C54.6482 10.7087 55.0026 10.8345 55.3571 10.926C55.7116 11.0175 56.0375 11.0632 56.3348 11.0632C56.6321 11.0632 56.9294 11.0232 57.2267 10.9431C57.5354 10.8517 57.787 10.703 57.9814 10.4972C58.1872 10.2913 58.2901 10.0055 58.2901 9.63956C58.2901 9.38799 58.2044 9.1593 58.0329 8.95347C57.8728 8.74764 57.6498 8.55897 57.3639 8.38745C57.0895 8.21592 56.7865 8.06727 56.4549 7.94149C56.0661 7.79284 55.6659 7.62131 55.2542 7.42692C54.8426 7.23253 54.4538 6.99812 54.0878 6.72368C53.7334 6.43781 53.4418 6.08905 53.2131 5.67739C52.9958 5.2543 52.8872 4.73974 52.8872 4.13369C52.8872 3.40186 53.0473 2.76723 53.3675 2.22979C53.6991 1.69235 54.1622 1.26927 54.7568 0.960525C55.3514 0.64035 56.0375 0.463111 56.8151 0.428807C57.8328 0.428807 58.6561 0.548872 59.285 0.789003C59.9253 1.02913 60.4971 1.31501 61.0002 1.64662L60.0568 3.55051Z" fill="#222222"/>
<path d="M62.2353 0.583177H65.1512L67.8441 8.50751L67.4496 8.33599L69.7994 2.48708L70.9486 5.90037L67.3124 13.7046L62.2353 0.583177ZM68.5645 0.583177H71.0344L74.139 8.25023L73.693 8.18162L76.0086 0.583177H78.6843L73.8131 13.6703L68.5645 0.583177Z" fill="#222222"/>
<path d="M77.7212 13.1215L83.4158 0H83.553L89.2475 13.1215H86.366L82.7297 3.89356L84.5307 2.6586L80.174 13.1215H77.7212ZM81.6148 8.55897H85.4054L86.2802 10.6515H80.8429L81.6148 8.55897Z" fill="#222222"/>
<path d="M94.9127 0.497415C95.9533 0.497415 96.8338 0.674655 97.5542 1.02913C98.2746 1.37218 98.8234 1.86388 99.2008 2.50423C99.5781 3.13314 99.7668 3.88212 99.7668 4.75117C99.7668 5.26574 99.6868 5.78602 99.5267 6.31203C99.378 6.82659 99.1322 7.29542 98.7891 7.71851C98.4575 8.1416 98.0059 8.48464 97.4341 8.74764C96.8738 8.99921 96.182 9.12499 95.3587 9.12499H93.5749V13.1215H91.0878V0.497415H94.9127ZM95.3415 6.70653C95.7189 6.70653 96.0333 6.64364 96.2849 6.51785C96.5365 6.38063 96.7309 6.21483 96.8681 6.02044C97.0167 5.81461 97.1197 5.60307 97.1768 5.3858C97.2454 5.16854 97.2797 4.97987 97.2797 4.81978C97.2797 4.694 97.2569 4.52819 97.2111 4.32237C97.1768 4.1051 97.0968 3.88784 96.971 3.67058C96.8452 3.45332 96.6508 3.27036 96.3878 3.12171C96.1363 2.97306 95.7932 2.89873 95.3587 2.89873H93.5749V6.70653H95.3415Z" fill="#222222"/>
<path d="M106.146 13.1215L111.841 0H111.978L117.673 13.1215H114.791L111.155 3.89356L112.956 2.6586L108.599 13.1215H106.146ZM110.04 8.55897H113.831L114.705 10.6515H109.268L110.04 8.55897Z" fill="#222222"/>
<path d="M119.513 0.497415H122V13.1215H119.513V0.497415Z" fill="#222222"/>
<mask id="mask0_127_10219" style="mask-type:alpha" maskUnits="userSpaceOnUse" x="0" y="0" width="122" height="14">
<path d="M3.82495 0.497415C4.86552 0.497415 5.746 0.674655 6.4664 1.02913C7.18679 1.37218 7.73566 1.86388 8.11301 2.50423C8.49036 3.13314 8.67903 3.88212 8.67903 4.75117C8.67903 5.26574 8.59899 5.78602 8.4389 6.31203C8.29025 6.82659 8.0444 7.29542 7.70136 7.71851C7.36975 8.1416 6.91807 8.48464 6.34633 8.74764C5.78602 8.99921 5.09422 9.12499 4.27091 9.12499H2.48708V13.1215H0V0.497415H3.82495ZM4.25376 6.70653C4.6311 6.70653 4.94556 6.64364 5.19713 6.51785C5.4487 6.38063 5.64309 6.21483 5.78031 6.02044C5.92896 5.81461 6.03187 5.60307 6.08905 5.3858C6.15766 5.16854 6.19196 4.97987 6.19196 4.81978C6.19196 4.694 6.16909 4.52819 6.12335 4.32237C6.08905 4.1051 6.009 3.88784 5.88322 3.67058C5.75744 3.45332 5.56304 3.27036 5.30004 3.12171C5.04848 2.97306 4.70543 2.89873 4.27091 2.89873H2.48708V6.70653H4.25376Z" fill="white"/>
<path d="M14.7294 0.497415C15.5184 0.497415 16.2216 0.600328 16.8391 0.806155C17.4566 1.00055 17.9711 1.28642 18.3828 1.66377C18.8059 2.02968 19.126 2.47564 19.3433 3.00164C19.5606 3.51621 19.6692 4.09939 19.6692 4.75117C19.6692 5.26574 19.5892 5.78031 19.4291 6.29487C19.2804 6.80944 19.0288 7.27827 18.6744 7.70136C18.3313 8.12444 17.8739 8.46749 17.3022 8.73049C16.7304 8.98206 16.0215 9.10784 15.1753 9.10784H13.3915V13.1215H10.9044V0.497415H14.7294ZM15.1582 6.70653C15.5355 6.70653 15.85 6.64364 16.1015 6.51785C16.3531 6.39207 16.5475 6.23198 16.6847 6.03759C16.8334 5.8432 16.9363 5.64309 16.9934 5.43726C17.0621 5.22 17.0964 5.01989 17.0964 4.83693C17.0964 4.69971 17.0735 4.52819 17.0278 4.32237C16.9935 4.1051 16.9134 3.88784 16.7876 3.67058C16.6618 3.45332 16.4674 3.27036 16.2044 3.12171C15.9529 2.97306 15.6098 2.89873 15.1753 2.89873H13.3915V6.70653H15.1582ZM17.4909 8.25023L20.6126 13.1215H17.7138L14.5235 8.31884L17.4909 8.25023Z" fill="white"/>
<path d="M21.4557 6.82659C21.4557 5.95755 21.6215 5.13424 21.9531 4.35667C22.2847 3.5791 22.7421 2.89301 23.3253 2.2984C23.9199 1.69235 24.606 1.21781 25.3836 0.874764C26.1611 0.53172 26.9959 0.360198 27.8878 0.360198C28.7683 0.360198 29.5973 0.53172 30.3749 0.874764C31.1524 1.21781 31.8385 1.69235 32.4331 2.2984C33.0392 2.89301 33.508 3.5791 33.8396 4.35667C34.1827 5.13424 34.3542 5.95755 34.3542 6.82659C34.3542 7.71851 34.1827 8.55325 33.8396 9.33082C33.508 10.1084 33.0392 10.7945 32.4331 11.3891C31.8385 11.9723 31.1524 12.4297 30.3749 12.7613C29.5973 13.0929 28.7683 13.2587 27.8878 13.2587C26.9959 13.2587 26.1611 13.0929 25.3836 12.7613C24.606 12.4297 23.9199 11.9723 23.3253 11.3891C22.7421 10.7945 22.2847 10.1084 21.9531 9.33082C21.6215 8.55325 21.4557 7.71851 21.4557 6.82659ZM24.0285 6.82659C24.0285 7.3869 24.1257 7.9129 24.3201 8.4046C24.526 8.88486 24.8061 9.31367 25.1606 9.69102C25.5265 10.0569 25.9439 10.3428 26.4127 10.5486C26.893 10.7545 27.4133 10.8574 27.9736 10.8574C28.511 10.8574 29.0084 10.7545 29.4658 10.5486C29.9346 10.3428 30.3406 10.0569 30.6836 9.69102C31.0267 9.31367 31.2954 8.88486 31.4898 8.4046C31.6842 7.9129 31.7814 7.3869 31.7814 6.82659C31.7814 6.25485 31.6784 5.72313 31.4726 5.23143C31.2782 4.73974 31.0038 4.31093 30.6493 3.94502C30.3063 3.56767 29.9003 3.27608 29.4315 3.07025C28.9627 2.86442 28.4538 2.76151 27.905 2.76151C27.3561 2.76151 26.8472 2.86442 26.3784 3.07025C25.9096 3.27608 25.4979 3.56767 25.1434 3.94502C24.789 4.31093 24.5145 4.73974 24.3201 5.23143C24.1257 5.72313 24.0285 6.25485 24.0285 6.82659Z" fill="white"/>
<path d="M40.6587 0.497415C41.6993 0.497415 42.5798 0.674655 43.3002 1.02913C44.0206 1.37218 44.5694 1.86388 44.9468 2.50423C45.3241 3.13314 45.5128 3.88212 45.5128 4.75117C45.5128 5.26574 45.4328 5.78602 45.2727 6.31203C45.124 6.82659 44.8782 7.29542 44.5351 7.71851C44.2035 8.1416 43.7518 8.48464 43.1801 8.74764C42.6198 8.99921 41.928 9.12499 41.1047 9.12499H39.3208V13.1215H36.8338V0.497415H40.6587ZM41.0875 6.70653C41.4649 6.70653 41.7793 6.64364 42.0309 6.51785C42.2825 6.38063 42.4769 6.21483 42.6141 6.02044C42.7627 5.81461 42.8656 5.60307 42.9228 5.3858C42.9914 5.16854 43.0257 4.97987 43.0257 4.81978C43.0257 4.694 43.0029 4.52819 42.9571 4.32237C42.9228 4.1051 42.8428 3.88784 42.717 3.67058C42.5912 3.45332 42.3968 3.27036 42.1338 3.12171C41.8822 2.97306 41.5392 2.89873 41.1047 2.89873H39.3208V6.70653H41.0875Z" fill="white"/>
<path d="M60.0568 3.55051C59.5766 3.28751 59.0849 3.07025 58.5817 2.89873C58.09 2.72721 57.6269 2.64145 57.1924 2.64145C56.655 2.64145 56.2319 2.75008 55.9231 2.96734C55.6144 3.1846 55.46 3.51049 55.46 3.94502C55.46 4.24232 55.5744 4.51104 55.8031 4.75117C56.0432 4.97987 56.3462 5.18569 56.7121 5.36865C57.0895 5.55161 57.4783 5.71741 57.8785 5.86607C58.2444 6.00328 58.6046 6.16909 58.9591 6.36348C59.325 6.54644 59.6509 6.78085 59.9368 7.06672C60.2226 7.34116 60.4513 7.68992 60.6229 8.11301C60.7944 8.52466 60.8801 9.03351 60.8801 9.63956C60.8801 10.2799 60.7143 10.8745 60.3827 11.4234C60.0511 11.9723 59.5651 12.4182 58.9248 12.7613C58.2844 13.0929 57.4954 13.2587 56.5578 13.2587C56.0775 13.2587 55.5858 13.2129 55.0827 13.1215C54.591 13.0186 54.105 12.8699 53.6247 12.6755C53.1445 12.4697 52.6814 12.2124 52.2354 11.9037L53.3331 9.96545C53.6305 10.1827 53.9506 10.3771 54.2937 10.5486C54.6482 10.7087 55.0026 10.8345 55.3571 10.926C55.7116 11.0175 56.0375 11.0632 56.3348 11.0632C56.6321 11.0632 56.9294 11.0232 57.2267 10.9431C57.5354 10.8517 57.787 10.703 57.9814 10.4972C58.1872 10.2913 58.2901 10.0055 58.2901 9.63956C58.2901 9.38799 58.2044 9.1593 58.0329 8.95347C57.8728 8.74764 57.6498 8.55897 57.3639 8.38745C57.0895 8.21592 56.7865 8.06727 56.4549 7.94149C56.0661 7.79284 55.6659 7.62131 55.2542 7.42692C54.8426 7.23253 54.4538 6.99812 54.0878 6.72368C53.7334 6.43781 53.4418 6.08905 53.2131 5.67739C52.9958 5.2543 52.8872 4.73974 52.8872 4.13369C52.8872 3.40186 53.0473 2.76723 53.3675 2.22979C53.6991 1.69235 54.1622 1.26927 54.7568 0.960525C55.3514 0.64035 56.0375 0.463111 56.8151 0.428807C57.8328 0.428807 58.6561 0.548872 59.285 0.789003C59.9253 1.02913 60.4971 1.31501 61.0002 1.64662L60.0568 3.55051Z" fill="white"/>
<path d="M62.2353 0.583177H65.1512L67.8441 8.50751L67.4496 8.33599L69.7994 2.48708L70.9486 5.90037L67.3124 13.7046L62.2353 0.583177ZM68.5645 0.583177H71.0344L74.139 8.25023L73.693 8.18162L76.0086 0.583177H78.6843L73.8131 13.6703L68.5645 0.583177Z" fill="white"/>
<path d="M77.7212 13.1215L83.4158 0H83.553L89.2475 13.1215H86.366L82.7297 3.89356L84.5307 2.6586L80.174 13.1215H77.7212ZM81.6148 8.55897H85.4054L86.2802 10.6515H80.8429L81.6148 8.55897Z" fill="white"/>
<path d="M94.9127 0.497415C95.9533 0.497415 96.8338 0.674655 97.5542 1.02913C98.2746 1.37218 98.8234 1.86388 99.2008 2.50423C99.5781 3.13314 99.7668 3.88212 99.7668 4.75117C99.7668 5.26574 99.6868 5.78602 99.5267 6.31203C99.378 6.82659 99.1322 7.29542 98.7891 7.71851C98.4575 8.1416 98.0059 8.48464 97.4341 8.74764C96.8738 8.99921 96.182 9.12499 95.3587 9.12499H93.5749V13.1215H91.0878V0.497415H94.9127ZM95.3415 6.70653C95.7189 6.70653 96.0333 6.64364 96.2849 6.51785C96.5365 6.38063 96.7309 6.21483 96.8681 6.02044C97.0167 5.81461 97.1197 5.60307 97.1768 5.3858C97.2454 5.16854 97.2797 4.97987 97.2797 4.81978C97.2797 4.694 97.2569 4.52819 97.2111 4.32237C97.1768 4.1051 97.0968 3.88784 96.971 3.67058C96.8452 3.45332 96.6508 3.27036 96.3878 3.12171C96.1363 2.97306 95.7932 2.89873 95.3587 2.89873H93.5749V6.70653H95.3415Z" fill="white"/>
<path d="M106.146 13.1215L111.841 0H111.978L117.673 13.1215H114.791L111.155 3.89356L112.956 2.6586L108.599 13.1215H106.146ZM110.04 8.55897H113.831L114.705 10.6515H109.268L110.04 8.55897Z" fill="white"/>
<path d="M119.513 0.497415H122V13.1215H119.513V0.497415Z" fill="white"/>
</mask>
<g mask="url(#mask0_127_10219)">
<rect x="50.8362" y="0.00500488" width="50.4478" height="13.6209" fill="#222222"/>
</g>
</svg>
