<svg width="14" height="19" viewBox="0 0 14 19" fill="none" xmlns="http://www.w3.org/2000/svg">
<path d="M3.66178 2.77083H2.13889C1.60222 2.77083 1.16667 3.21417 1.16667 3.76042V16.8229C1.16667 17.3692 1.60222 17.8125 2.13889 17.8125H11.8611C12.3978 17.8125 12.8333 17.3692 12.8333 16.8229V3.76042C12.8333 3.21417 12.3978 2.77083 11.8611 2.77083H10.3382C10.1868 3.12387 9.93755 3.42428 9.62089 3.63521C9.30424 3.84615 8.93399 3.95844 8.55556 3.95833H5.44444C5.06601 3.95844 4.69576 3.84615 4.37911 3.63521C4.06245 3.42428 3.81315 3.12387 3.66178 2.77083ZM10.4611 1.58333H11.8611C12.4284 1.58333 12.9724 1.8127 13.3735 2.22099C13.7747 2.62927 14 3.18302 14 3.76042V16.8229C14 17.4003 13.7747 17.9541 13.3735 18.3623C12.9724 18.7706 12.4284 19 11.8611 19H2.13889C1.57162 19 1.02759 18.7706 0.626466 18.3623C0.225346 17.9541 0 17.4003 0 16.8229V3.76042C0 3.18302 0.225346 2.62927 0.626466 2.22099C1.02759 1.8127 1.57162 1.58333 2.13889 1.58333H3.53889C3.62854 1.13629 3.86718 0.73451 4.21443 0.445983C4.56167 0.157456 4.99619 -9.30805e-05 5.44444 4.1257e-08H8.55556C9.00381 -9.30805e-05 9.43833 0.157456 9.78557 0.445983C10.1328 0.73451 10.3715 1.13629 10.4611 1.58333ZM4.66667 1.97917C4.66667 2.18913 4.74861 2.39049 4.89447 2.53896C5.04033 2.68743 5.23816 2.77083 5.44444 2.77083H8.55556C8.76184 2.77083 8.95967 2.68743 9.10553 2.53896C9.25139 2.39049 9.33333 2.18913 9.33333 1.97917C9.33333 1.7692 9.25139 1.56784 9.10553 1.41937C8.95967 1.27091 8.76184 1.1875 8.55556 1.1875H5.44444C5.23816 1.1875 5.04033 1.27091 4.89447 1.41937C4.74861 1.56784 4.66667 1.7692 4.66667 1.97917ZM7 6.33333C6.63901 6.33333 6.29281 6.4793 6.03755 6.73911C5.78229 6.99893 5.63889 7.35132 5.63889 7.71875C5.63889 8.08619 5.78229 8.43857 6.03755 8.69839C6.29281 8.9582 6.63901 9.10417 7 9.10417C7.36099 9.10417 7.70719 8.9582 7.96245 8.69839C8.21771 8.43857 8.36111 8.08619 8.36111 7.71875C8.36111 7.35132 8.21771 6.99893 7.96245 6.73911C7.70719 6.4793 7.36099 6.33333 7 6.33333ZM4.47222 7.71875C4.47222 7.03637 4.73854 6.38194 5.21259 5.89942C5.68664 5.41691 6.32959 5.14583 7 5.14583C7.67041 5.14583 8.31336 5.41691 8.78741 5.89942C9.26146 6.38194 9.52778 7.03637 9.52778 7.71875C9.52778 8.40113 9.26146 9.05556 8.78741 9.53808C8.31336 10.0206 7.67041 10.2917 7 10.2917C6.32959 10.2917 5.68664 10.0206 5.21259 9.53808C4.73854 9.05556 4.47222 8.40113 4.47222 7.71875ZM3.88889 12.9358C3.88889 12.7595 3.95772 12.5903 4.08025 12.4656C4.20277 12.3409 4.36895 12.2708 4.54222 12.2708H9.45778C9.63105 12.2708 9.79723 12.3409 9.91975 12.4656C10.0423 12.5903 10.1111 12.7595 10.1111 12.9358C10.1111 13.6285 9.82022 14.1225 9.31467 14.4677C8.78267 14.8303 7.98544 15.0417 7 15.0417C6.01456 15.0417 5.21733 14.8303 4.68533 14.4677C4.17978 14.1225 3.88889 13.6278 3.88889 12.9358ZM4.54222 11.0841C4.05953 11.0841 3.5966 11.2793 3.25529 11.6267C2.91397 11.9741 2.72222 12.4453 2.72222 12.9366C2.72222 14.045 3.22311 14.9 4.03667 15.4541C4.82456 15.9925 5.87456 16.23 7 16.23C8.12544 16.23 9.17544 15.9925 9.96333 15.4541C10.7769 14.9 11.2778 14.045 11.2778 12.9366C11.2778 12.4452 11.0861 11.974 10.7448 11.6264C10.4035 11.2789 9.94054 11.0835 9.45778 11.0833L4.54222 11.0841Z" fill="white"/>
</svg>
