<svg width="20" height="16" viewBox="0 0 20 16" fill="none" xmlns="http://www.w3.org/2000/svg">
<path d="M18.0795 2.1272L18.523 1.85H18H2H1.47698L1.9205 2.1272L9.9205 7.1272L10 7.17689L10.0795 7.1272L18.0795 2.1272ZM18 14.15H18.15V14V4V3.72936L17.9205 3.8728L10 8.82311L2.0795 3.8728L1.85 3.72936V4V14V14.15H2H18ZM18 0.15C19.0172 0.15 19.85 0.982843 19.85 2V14C19.85 15.0172 19.0172 15.85 18 15.85H2C0.982843 15.85 0.15 15.0172 0.15 14V2C0.15 0.982843 0.982843 0.15 2 0.15H18Z" fill="#222222" stroke="#E8E8E8" stroke-width="0.3"/>
</svg>
